<svg width="26" height="20" viewBox="0 0 26 20" fill="none" xmlns="http://www.w3.org/2000/svg">
<path d="M0.08125 2.59167C0.24508 1.8554 0.647815 1.19802 1.2235 0.727181C1.79918 0.256339 2.51369 -5.0824e-05 3.25 7.5569e-09H22.75C23.4863 -5.0824e-05 24.2008 0.256339 24.7765 0.727181C25.3522 1.19802 25.7549 1.8554 25.9187 2.59167L13 10.69L0.08125 2.59167ZM0 4.495V16.335L9.42988 10.405L0 4.495ZM10.9866 11.3833L0.310375 18.095C0.574156 18.6655 0.990481 19.1474 1.5109 19.4846C2.03131 19.8219 2.63441 20.0006 3.25 20H22.75C23.3655 20.0001 23.9684 19.821 24.4885 19.4835C25.0086 19.1459 25.4246 18.6639 25.688 18.0933L15.0118 11.3817L13 12.6433L10.9866 11.3817V11.3833ZM16.5701 10.4067L26 16.335V4.495L16.5701 10.405V10.4067Z" fill="#1c58f0"/>
</svg>
